<svg width="32" height="32" viewBox="0 0 32 32" fill="none" xmlns="http://www.w3.org/2000/svg">
<path d="M15.9991 6.6665V25.3332M20.2415 10.0614H13.8779C13.0903 10.0614 12.3349 10.3743 11.778 10.9312C11.2211 11.4881 10.9082 12.2435 10.9082 13.0311C10.9082 13.8187 11.2211 14.5741 11.778 15.131C12.3349 15.6879 13.0903 16.0008 13.8779 16.0008H18.1203C18.9079 16.0008 19.6633 16.3137 20.2202 16.8706C20.7771 17.4275 21.09 18.1829 21.09 18.9705C21.09 19.7581 20.7771 20.5134 20.2202 21.0704C19.6633 21.6273 18.9079 21.9402 18.1203 21.9402H10.9082" stroke="#50F5AC" stroke-linecap="round" stroke-linejoin="round"/>
<rect x="0.5" y="0.5" width="31" height="31" rx="7.5" stroke="#50F5AC"/>
</svg>
