<svg width="29" height="34" viewBox="0 0 29 34" fill="none" xmlns="http://www.w3.org/2000/svg">
<path d="M12.4286 17L7.85714 12.4286M7.85714 12.4286L12.4286 7.85714M7.85714 12.4286H16.8571C19.4611 12.4286 21.5714 14.4749 21.5714 17C21.5714 19.5251 19.4611 21.5714 16.8571 21.5714H14.7143M18.4411 32.7347L15.5594 30.7436C15.0469 30.3898 14.38 30.3898 13.8691 30.7436L10.9874 32.7347C10.4749 33.0884 9.808 33.0884 9.29714 32.7347L6.41714 30.7418C5.90457 30.388 5.23771 30.388 4.72686 30.7418L3.36914 31.6805C2.356 32.3809 1 31.6271 1 30.3667V4.16084C1 2.41509 2.36457 1 4.048 1H25.3806C27.064 1 28.4286 2.41509 28.4286 4.16084V30.3667C28.4286 31.6289 27.0726 32.3809 26.0594 31.6822L24.7017 30.7436C24.1891 30.3898 23.5223 30.3898 23.0114 30.7436L20.1297 32.7347C19.6189 33.0884 18.952 33.0884 18.4411 32.7347Z" stroke="#50F5AC" stroke-linecap="round" stroke-linejoin="round"/>
</svg>
