<svg width="36" height="36" viewBox="0 0 36 36" fill="none" xmlns="http://www.w3.org/2000/svg">
<g clip-path="url(#clip0_7165_51998)">
<path d="M10.9929 13.7008C14.141 11.2244 17.61 6.2368 19.4587 3.38187C20.0708 2.43657 21.4897 2.45301 22.0527 3.4283L24.4716 7.61795M10.9929 13.7008C8.84622 14.9402 6.00726 16.5793 3.98252 17.7483C2.57497 18.5609 2.09446 20.3598 2.90711 21.7673L5.84998 26.8645C6.66263 28.2721 8.46071 28.7553 9.86826 27.9427C11.893 26.7737 14.732 25.1346 16.8787 23.8952M10.9929 13.7008C12.1422 15.6914 13.9358 18.798 13.9358 18.798C13.9358 18.798 15.7294 21.9046 16.8787 23.8952M24.4716 7.61795C26.583 6.39897 29.2827 7.12237 30.5017 9.2337C31.7207 11.345 30.9973 14.0448 28.8859 15.2638M24.4716 7.61795L28.8859 15.2638M28.8859 15.2638L31.3048 19.4534C31.8679 20.4287 31.1727 21.6657 30.048 21.7231C26.6513 21.8967 20.5974 22.4071 16.8787 23.8952M10.9356 27.3265L16.4158 32.6578L19.5522 29.9974C19.5522 29.9974 16.416 27.5605 15.2631 24.828L10.9356 27.3265Z" stroke="#50F5AC" stroke-linejoin="round"/>
</g>
<defs>
<clipPath id="clip0_7165_51998">
<rect width="36" height="36" fill="white"/>
</clipPath>
</defs>
</svg>
